<?xml version="1.0" encoding="iso-8859-1"?>
<!-- Uploaded to: SVG Repo, www.svgrepo.com, Generator: SVG Repo Mixer Tools -->
<svg fill="#000000" version="1.1" id="Layer_1" xmlns="http://www.w3.org/2000/svg" xmlns:xlink="http://www.w3.org/1999/xlink" 
	 viewBox="0 0 512.003 512.003" xml:space="preserve">
<g transform="translate(0 -1)">
	<g>
		<g>
			<path d="M153.601,26.603c0,4.71-3.814,8.533-8.533,8.533s-8.533-3.823-8.533-8.533v-25.6h-102.4c-4.71,0-8.533,3.814-8.533,8.533
				v494.933c0,4.719,3.823,8.533,8.533,8.533h102.4v-25.6c0-4.71,3.814-8.533,8.533-8.533s8.533,3.823,8.533,8.533v25.6h76.8
				v-42.667h-8.533c-4.71,0-8.533-3.814-8.533-8.533s3.823-8.533,8.533-8.533h8.533v-17.067h-8.533c-4.71,0-8.533-3.814-8.533-8.533
				c0-4.719,3.823-8.533,8.533-8.533h8.533v-17.067h-8.533c-4.71,0-8.533-3.814-8.533-8.533s3.823-8.533,8.533-8.533h8.533v-17.067
				h-8.533c-4.71,0-8.533-3.814-8.533-8.533c0-4.719,3.823-8.533,8.533-8.533h8.533v-17.067h-8.533c-4.71,0-8.533-3.814-8.533-8.533
				s3.823-8.533,8.533-8.533h8.533v-17.067h-8.533c-4.71,0-8.533-3.814-8.533-8.533s3.823-8.533,8.533-8.533h8.533v-17.067h-8.533
				c-4.71,0-8.533-3.814-8.533-8.533c0-4.719,3.823-8.533,8.533-8.533h8.533v-17.067h-8.533c-4.71,0-8.533-3.814-8.533-8.533
				s3.823-8.533,8.533-8.533h8.533v-17.067h-8.533c-4.71,0-8.533-3.814-8.533-8.533c0-4.719,3.823-8.533,8.533-8.533h8.533v-17.067
				h-8.533c-4.71,0-8.533-3.814-8.533-8.533s3.823-8.533,8.533-8.533h8.533v-17.067h-8.533c-4.71,0-8.533-3.814-8.533-8.533
				s3.823-8.533,8.533-8.533h8.533V94.869h-8.533c-4.71,0-8.533-3.814-8.533-8.533s3.823-8.533,8.533-8.533h8.533V60.736h-8.533
				c-4.71,0-8.533-3.814-8.533-8.533s3.823-8.533,8.533-8.533h8.533V1.003h-76.8V26.603z M153.601,438.029
				c0,4.719-3.814,8.533-8.533,8.533s-8.533-3.814-8.533-8.533v-32.913c0-4.71,3.814-8.533,8.533-8.533s8.533,3.823,8.533,8.533
				V438.029z M153.601,355.742c0,4.719-3.814,8.533-8.533,8.533s-8.533-3.814-8.533-8.533v-32.913c0-4.71,3.814-8.533,8.533-8.533
				s8.533,3.823,8.533,8.533V355.742z M153.601,273.463c0,4.71-3.814,8.533-8.533,8.533s-8.533-3.823-8.533-8.533v-32.922
				c0-4.71,3.814-8.533,8.533-8.533s8.533,3.823,8.533,8.533V273.463z M153.601,191.176c0,4.71-3.814,8.533-8.533,8.533
				s-8.533-3.823-8.533-8.533v-32.913c0-4.71,3.814-8.533,8.533-8.533s8.533,3.823,8.533,8.533V191.176z M153.601,108.89
				c0,4.71-3.814,8.533-8.533,8.533s-8.533-3.823-8.533-8.533V75.976c0-4.719,3.814-8.533,8.533-8.533s8.533,3.814,8.533,8.533
				V108.89z"/>
			<path d="M477.868,1h-102.4v25.6c0,4.719-3.814,8.533-8.533,8.533s-8.533-3.814-8.533-8.533V1h-76.8v42.667h8.533
				c4.71,0,8.533,3.823,8.533,8.533c0,4.719-3.823,8.533-8.533,8.533h-8.533V77.8h8.533c4.71,0,8.533,3.823,8.533,8.533
				c0,4.719-3.823,8.533-8.533,8.533h-8.533v17.067h8.533c4.71,0,8.533,3.823,8.533,8.533c0,4.719-3.823,8.533-8.533,8.533h-8.533
				v17.067h8.533c4.71,0,8.533,3.823,8.533,8.533c0,4.719-3.823,8.533-8.533,8.533h-8.533V180.2h8.533
				c4.71,0,8.533,3.823,8.533,8.533c0,4.719-3.823,8.533-8.533,8.533h-8.533v17.067h8.533c4.71,0,8.533,3.823,8.533,8.533
				c0,4.719-3.823,8.533-8.533,8.533h-8.533v17.067h8.533c4.71,0,8.533,3.823,8.533,8.533c0,4.719-3.823,8.533-8.533,8.533h-8.533
				V282.6h8.533c4.71,0,8.533,3.823,8.533,8.533c0,4.719-3.823,8.533-8.533,8.533h-8.533v17.067h8.533
				c4.71,0,8.533,3.823,8.533,8.533c0,4.719-3.823,8.533-8.533,8.533h-8.533v17.067h8.533c4.71,0,8.533,3.823,8.533,8.533
				c0,4.719-3.823,8.533-8.533,8.533h-8.533V385h8.533c4.71,0,8.533,3.823,8.533,8.533c0,4.719-3.823,8.533-8.533,8.533h-8.533
				v17.067h8.533c4.71,0,8.533,3.823,8.533,8.533c0,4.719-3.823,8.533-8.533,8.533h-8.533v17.067h8.533
				c4.71,0,8.533,3.823,8.533,8.533c0,4.719-3.823,8.533-8.533,8.533h-8.533V513h76.8v-25.6c0-4.71,3.814-8.533,8.533-8.533
				s8.533,3.823,8.533,8.533V513h102.4c4.71,0,8.533-3.814,8.533-8.533V9.533C486.401,4.823,482.578,1,477.868,1z M375.468,438.035
				c0,4.71-3.814,8.533-8.533,8.533s-8.533-3.823-8.533-8.533v-32.922c0-4.71,3.814-8.533,8.533-8.533s8.533,3.823,8.533,8.533
				V438.035z M375.468,355.748c0,4.71-3.814,8.533-8.533,8.533s-8.533-3.823-8.533-8.533v-32.913c0-4.71,3.814-8.533,8.533-8.533
				s8.533,3.823,8.533,8.533V355.748z M375.468,273.461c0,4.71-3.814,8.533-8.533,8.533s-8.533-3.823-8.533-8.533v-32.913
				c0-4.719,3.814-8.533,8.533-8.533s8.533,3.814,8.533,8.533V273.461z M375.468,191.174c0,4.71-3.814,8.533-8.533,8.533
				s-8.533-3.823-8.533-8.533v-32.913c0-4.71,3.814-8.533,8.533-8.533s8.533,3.823,8.533,8.533V191.174z M375.468,108.887
				c0,4.71-3.814,8.533-8.533,8.533s-8.533-3.823-8.533-8.533V75.974c0-4.71,3.814-8.533,8.533-8.533s8.533,3.823,8.533,8.533
				V108.887z"/>
			<rect x="247.468" y="1.001" width="17.067" height="512"/>
		</g>
	</g>
</g>
</svg>