<?xml version="1.0" standalone="no"?>
<!DOCTYPE svg PUBLIC "-//W3C//DTD SVG 20010904//EN"
 "http://www.w3.org/TR/2001/REC-SVG-20010904/DTD/svg10.dtd">
<svg version="1.0" xmlns="http://www.w3.org/2000/svg"
 width="436.000000pt" viewBox="0 0 300.000000 122.000000"
 preserveAspectRatio="xMidYMid meet">

<g transform="translate(0.000000,122.000000) scale(0.100000,-0.100000)"
fill="#000000" stroke="none">
<path d="M0 1105 l0 -55 2150 0 2150 0 0 55 0 55 -2150 0 -2150 0 0 -55z"/>
<path d="M0 780 l0 -160 65 0 c58 0 65 -2 65 -20 0 -18 -7 -20 -65 -20 l-65 0
0 -155 0 -155 2150 0 2150 0 0 155 0 155 -65 0 c-58 0 -65 2 -65 20 0 18 7 20
65 20 l65 0 0 160 0 160 -2150 0 -2150 0 0 -160z m670 -180 c0 -19 -7 -20
-135 -20 -128 0 -135 1 -135 20 0 19 7 20 135 20 128 0 135 -1 135 -20z m540
0 c0 -19 -7 -20 -135 -20 -128 0 -135 1 -135 20 0 19 7 20 135 20 128 0 135
-1 135 -20z m540 0 c0 -19 -7 -20 -135 -20 -128 0 -135 1 -135 20 0 19 7 20
135 20 128 0 135 -1 135 -20z m530 0 c0 -19 -7 -20 -130 -20 -123 0 -130 1
-130 20 0 19 7 20 130 20 123 0 130 -1 130 -20z m540 0 c0 -19 -7 -20 -135
-20 -128 0 -135 1 -135 20 0 19 7 20 135 20 128 0 135 -1 135 -20z m540 0 c0
-19 -7 -20 -135 -20 -128 0 -135 1 -135 20 0 19 7 20 135 20 128 0 135 -1 135
-20z m540 0 c0 -19 -7 -20 -135 -20 -128 0 -135 1 -135 20 0 19 7 20 135 20
128 0 135 -1 135 -20z"/>
<path d="M0 95 l0 -55 2150 0 2150 0 0 55 0 55 -2150 0 -2150 0 0 -55z"/>
</g>
</svg>
